<?xml version="1.0" encoding="utf-8"?>
<!-- Generator: Adobe Illustrator 16.0.0, SVG Export Plug-In . SVG Version: 6.00 Build 0)  -->
<!DOCTYPE svg PUBLIC "-//W3C//DTD SVG 1.1//EN" "http://www.w3.org/Graphics/SVG/1.1/DTD/svg11.dtd">
<svg version="1.1" id="Layer_1" xmlns="http://www.w3.org/2000/svg" xmlns:xlink="http://www.w3.org/1999/xlink" x="0px" y="0px"
	 width="300px" height="120px" viewBox="0 0 300 120" enable-background="new 0 0 300 120" xml:space="preserve">
<rect fill="#1447F2" width="300" height="120"/>
<g>
	<g>
		<g>
			<g>
				<g>
					<g>
						<path fill="#FFFFFF" d="M108.84,66.833c3.666,0,6.602,2.953,6.602,6.617c0,3.67-2.936,6.584-6.602,6.584
							c-3.664,0-6.579-2.914-6.579-6.584C102.261,69.786,105.176,66.833,108.84,66.833z M108.84,77.648
							c2.309,0,4.215-1.887,4.215-4.198c0-2.31-1.906-4.233-4.215-4.233c-2.309,0-4.2,1.924-4.2,4.233
							C104.64,75.763,106.531,77.648,108.84,77.648z"/>
					</g>
					<g>
						<path fill="#FFFFFF" d="M119.054,67.165c0-0.187,0.166-0.332,0.351-0.332h0.458l7.624,8.104h0.021v-7.571
							c0-0.183,0.145-0.351,0.349-0.351h1.688c0.18,0,0.349,0.168,0.349,0.351v12.338c0,0.184-0.169,0.33-0.349,0.33h-0.441
							l-7.666-8.413h-0.015v7.88c0,0.187-0.149,0.349-0.35,0.349h-1.667c-0.184,0-0.35-0.162-0.35-0.349V67.165H119.054z"/>
					</g>
					<g>
						<path fill="#FFFFFF" d="M134.364,67.366c0-0.183,0.143-0.351,0.345-0.351h7.465c0.2,0,0.349,0.168,0.349,0.351v1.503
							c0,0.183-0.148,0.348-0.349,0.348h-5.43v3.008h4.53c0.184,0,0.35,0.164,0.35,0.349v1.521c0,0.2-0.166,0.347-0.35,0.347h-4.53
							v3.209h5.43c0.2,0,0.349,0.166,0.349,0.348v1.504c0,0.188-0.148,0.35-0.349,0.35h-7.465c-0.202,0-0.345-0.162-0.345-0.35
							V67.366z"/>
					</g>
				</g>
			</g>
		</g>
	</g>
</g>
<g>
	<g>
		<g>
			<g>
				<path fill="#FFFFFF" d="M103.585,93.129l-0.76,2.305h-0.979l2.488-7.324h1.143l2.498,7.324h-1.01l-0.783-2.305H103.585z
					 M105.987,92.391l-0.729-2.108c-0.15-0.479-0.26-0.914-0.369-1.337h-0.033c-0.096,0.423-0.217,0.881-0.357,1.326l-0.717,2.119
					H105.987z"/>
				<path fill="#FFFFFF" d="M111.321,91.891c0-0.676-0.01-1.219-0.043-1.718h0.859l0.053,0.902h0.023
					c0.379-0.652,1.01-1.021,1.857-1.021c1.281,0,2.238,1.076,2.238,2.673c0,1.892-1.162,2.825-2.391,2.825
					c-0.707,0-1.305-0.304-1.619-0.825h-0.021v2.858h-0.957v-5.694H111.321z M112.278,93.292c0,0.13,0.01,0.271,0.043,0.392
					c0.164,0.664,0.752,1.12,1.424,1.12c1.012,0,1.598-0.827,1.598-2.034c0-1.054-0.543-1.955-1.555-1.955
					c-0.652,0-1.27,0.457-1.457,1.176c-0.02,0.129-0.053,0.27-0.053,0.391V93.292z"/>
				<path fill="#FFFFFF" d="M118.038,92.966c0.023,1.294,0.838,1.826,1.793,1.826c0.686,0,1.109-0.12,1.457-0.262l0.174,0.675
					c-0.336,0.15-0.924,0.336-1.76,0.336c-1.609,0-2.588-1.075-2.588-2.65c0-1.599,0.947-2.849,2.479-2.849
					c1.717,0,2.162,1.511,2.162,2.478c0,0.195-0.01,0.35-0.031,0.457L118.038,92.966z M120.831,92.281
					c0.01-0.6-0.25-1.555-1.314-1.555c-0.977,0-1.391,0.892-1.467,1.555H120.831z"/>
				<path fill="#FFFFFF" d="M123.456,92.966c0.021,1.294,0.836,1.826,1.793,1.826c0.684,0,1.107-0.12,1.457-0.262l0.172,0.675
					c-0.336,0.15-0.922,0.336-1.76,0.336c-1.607,0-2.586-1.075-2.586-2.65c0-1.599,0.945-2.849,2.477-2.849
					c1.717,0,2.164,1.511,2.164,2.478c0,0.195-0.012,0.35-0.033,0.457L123.456,92.966z M126.247,92.281
					c0.012-0.6-0.248-1.555-1.314-1.555c-0.979,0-1.391,0.892-1.467,1.555H126.247z"/>
				<path fill="#FFFFFF" d="M128.249,91.814c0-0.621-0.01-1.153-0.043-1.643h0.838l0.043,1.032h0.033
					c0.238-0.706,0.826-1.151,1.467-1.151c0.098,0,0.174,0.012,0.26,0.033v0.891c-0.106-0.012-0.207-0.022-0.336-0.022
					c-0.674,0-1.152,0.512-1.283,1.219c-0.021,0.142-0.031,0.293-0.031,0.456v2.805h-0.957L128.249,91.814z"/>
				<path fill="#FFFFFF" d="M133.55,92.15v0.694h-2.682V92.15H133.55z"/>
				<path fill="#FFFFFF" d="M134.681,91.814c0-0.621-0.01-1.153-0.043-1.643h0.836l0.043,1.032h0.033
					c0.238-0.706,0.826-1.151,1.467-1.151c0.098,0,0.174,0.012,0.26,0.033v0.891c-0.107-0.012-0.205-0.022-0.336-0.022
					c-0.674,0-1.152,0.512-1.283,1.219c-0.021,0.142-0.031,0.293-0.031,0.456v2.805h-0.955L134.681,91.814z"/>
				<path fill="#FFFFFF" d="M138.61,92.966c0.023,1.294,0.838,1.826,1.795,1.826c0.684,0,1.106-0.12,1.455-0.262l0.174,0.675
					c-0.336,0.15-0.924,0.336-1.76,0.336c-1.607,0-2.586-1.075-2.586-2.65c0-1.599,0.945-2.849,2.477-2.849
					c1.717,0,2.162,1.511,2.162,2.478c0,0.195-0.01,0.35-0.033,0.457L138.61,92.966z M141.405,92.281
					c0.01-0.6-0.25-1.555-1.314-1.555c-0.98,0-1.393,0.892-1.469,1.555H141.405z"/>
				<path fill="#FFFFFF" d="M143.692,90.173l1.033,2.944c0.174,0.488,0.314,0.923,0.424,1.357h0.033
					c0.119-0.436,0.271-0.869,0.445-1.357l1.021-2.944h1l-2.064,5.261h-0.914l-1.998-5.261H143.692z"/>
				<path fill="#FFFFFF" d="M148.931,89.206c-0.359,0-0.598-0.283-0.598-0.619c0-0.337,0.248-0.61,0.619-0.61
					c0.369,0,0.607,0.273,0.607,0.61c0,0.336-0.238,0.619-0.619,0.619H148.931z M148.474,95.434v-5.261h0.955v5.261H148.474z"/>
				<path fill="#FFFFFF" d="M151.432,92.966c0.02,1.294,0.836,1.826,1.791,1.826c0.686,0,1.108-0.12,1.454-0.262l0.177,0.675
					c-0.338,0.15-0.925,0.336-1.763,0.336c-1.608,0-2.586-1.075-2.586-2.65c0-1.599,0.945-2.849,2.479-2.849
					c1.717,0,2.162,1.511,2.162,2.478c0,0.195-0.013,0.35-0.033,0.457L151.432,92.966z M154.223,92.281
					c0.012-0.6-0.253-1.555-1.316-1.555c-0.978,0-1.391,0.892-1.465,1.555H154.223z"/>
				<path fill="#FFFFFF" d="M156.536,90.173l0.707,2.662c0.143,0.587,0.282,1.142,0.381,1.685h0.033
					c0.118-0.531,0.293-1.098,0.467-1.674l0.856-2.673h0.806l0.815,2.629c0.195,0.62,0.347,1.187,0.467,1.718h0.033
					c0.086-0.531,0.228-1.086,0.4-1.705l0.75-2.642h0.945l-1.695,5.261h-0.867l-0.807-2.511c-0.184-0.599-0.336-1.119-0.467-1.737
					h-0.021c-0.129,0.629-0.293,1.184-0.479,1.748l-0.849,2.5h-0.868l-1.586-5.261H156.536z"/>
				<path fill="#FFFFFF" d="M164.497,92.966c0.022,1.294,0.838,1.826,1.795,1.826c0.685,0,1.106-0.12,1.455-0.262l0.174,0.675
					c-0.338,0.15-0.924,0.336-1.76,0.336c-1.609,0-2.588-1.075-2.588-2.65c0-1.599,0.946-2.849,2.479-2.849
					c1.718,0,2.164,1.511,2.164,2.478c0,0.195-0.014,0.35-0.032,0.457L164.497,92.966z M167.292,92.281
					c0.01-0.6-0.252-1.555-1.315-1.555c-0.979,0-1.394,0.892-1.468,1.555H167.292z"/>
				<path fill="#FFFFFF" d="M173.913,87.718v6.355c0,0.468,0.012,1,0.043,1.358H173.1l-0.043-0.914h-0.023
					c-0.293,0.588-0.922,1.033-1.781,1.033c-1.271,0-2.26-1.076-2.26-2.673c-0.012-1.761,1.086-2.825,2.357-2.825
					c0.813,0,1.356,0.381,1.588,0.795h0.02v-3.131L173.913,87.718L173.913,87.718z M172.956,92.312c0-0.131-0.01-0.281-0.043-0.412
					c-0.142-0.599-0.662-1.098-1.381-1.098c-0.986,0-1.574,0.869-1.574,2.021c0,1.076,0.533,1.956,1.553,1.956
					c0.644,0,1.229-0.435,1.402-1.142c0.033-0.13,0.043-0.262,0.043-0.412V92.312L172.956,92.312z"/>
				<path fill="#FFFFFF" d="M174.757,96.777c0.238-0.649,0.531-1.813,0.65-2.605l1.065-0.107c-0.262,0.924-0.74,2.129-1.043,2.641
					L174.757,96.777z"/>
				<path fill="#FFFFFF" d="M182.068,95.552c-1.413,0-2.521-1.042-2.521-2.706c0-1.761,1.162-2.792,2.607-2.792
					c1.512,0,2.532,1.099,2.532,2.693c0,1.957-1.358,2.805-2.608,2.805H182.068z M182.102,94.834c0.911,0,1.598-0.857,1.598-2.054
					c0-0.892-0.445-2.011-1.574-2.011c-1.121,0-1.609,1.045-1.609,2.043c0,1.152,0.65,2.021,1.576,2.021H182.102z"/>
				<path fill="#FFFFFF" d="M185.79,91.891c0-0.676-0.01-1.219-0.043-1.718h0.856l0.058,0.902h0.021
					c0.381-0.652,1.01-1.021,1.856-1.021c1.283,0,2.237,1.076,2.237,2.673c0,1.892-1.159,2.825-2.389,2.825
					c-0.707,0-1.305-0.304-1.621-0.825h-0.021v2.858h-0.955V91.891z M186.745,93.292c0,0.13,0.012,0.271,0.045,0.392
					c0.162,0.664,0.75,1.12,1.424,1.12c1.011,0,1.597-0.827,1.597-2.034c0-1.054-0.543-1.955-1.554-1.955
					c-0.651,0-1.271,0.457-1.457,1.176c-0.021,0.129-0.055,0.27-0.055,0.391V93.292z"/>
				<path fill="#FFFFFF" d="M192.507,92.966c0.021,1.294,0.836,1.826,1.793,1.826c0.685,0,1.107-0.12,1.457-0.262l0.175,0.675
					c-0.339,0.15-0.926,0.336-1.763,0.336c-1.606,0-2.586-1.075-2.586-2.65c0-1.599,0.945-2.849,2.478-2.849
					c1.717,0,2.162,1.511,2.162,2.478c0,0.195-0.011,0.35-0.031,0.457L192.507,92.966z M195.299,92.281
					c0.012-0.6-0.249-1.555-1.314-1.555c-0.978,0-1.39,0.892-1.465,1.555H195.299z"/>
				<path fill="#FFFFFF" d="M197.296,91.598c0-0.556-0.01-0.99-0.043-1.425h0.849l0.055,0.858h0.021
					c0.26-0.489,0.869-0.979,1.737-0.979c0.729,0,1.858,0.436,1.858,2.238v3.141h-0.955v-3.033c0-0.847-0.316-1.563-1.219-1.563
					c-0.619,0-1.107,0.446-1.281,0.979c-0.043,0.117-0.064,0.293-0.064,0.443v3.174h-0.958V91.598z"/>
				<path fill="#FFFFFF" d="M209.337,94.172c0,0.456,0.021,0.901,0.076,1.262h-0.858l-0.087-0.662h-0.032
					c-0.283,0.412-0.858,0.78-1.607,0.78c-1.065,0-1.609-0.748-1.609-1.512c0-1.271,1.131-1.965,3.162-1.954v-0.109
					c0-0.435-0.119-1.228-1.195-1.217c-0.498,0-1.011,0.143-1.379,0.393l-0.218-0.642c0.435-0.271,1.075-0.457,1.737-0.457
					c1.619,0,2.012,1.099,2.012,2.152L209.337,94.172L209.337,94.172z M208.4,92.747c-1.043-0.021-2.228,0.165-2.228,1.187
					c0,0.631,0.413,0.912,0.892,0.912c0.694,0,1.142-0.435,1.293-0.88c0.033-0.099,0.043-0.207,0.043-0.305V92.747z"/>
				<path fill="#FFFFFF" d="M214.493,95.248c-0.25,0.119-0.806,0.304-1.513,0.304c-1.586,0-2.617-1.075-2.617-2.694
					s1.106-2.804,2.824-2.804c0.565,0,1.064,0.142,1.324,0.281l-0.216,0.729c-0.229-0.121-0.587-0.25-1.108-0.25
					c-1.205,0-1.856,0.9-1.856,1.998c0,1.217,0.781,1.968,1.824,1.968c0.544,0,0.901-0.132,1.175-0.25L214.493,95.248z"/>
				<path fill="#FFFFFF" d="M219.093,95.248c-0.249,0.119-0.804,0.304-1.509,0.304c-1.588,0-2.619-1.075-2.619-2.694
					s1.107-2.804,2.825-2.804c0.563,0,1.063,0.142,1.325,0.281l-0.219,0.729c-0.228-0.121-0.586-0.25-1.106-0.25
					c-1.207,0-1.858,0.9-1.858,1.998c0,1.217,0.782,1.968,1.825,1.968c0.543,0,0.902-0.132,1.175-0.25L219.093,95.248z"/>
				<path fill="#FFFFFF" d="M220.495,92.966c0.022,1.294,0.837,1.826,1.794,1.826c0.684,0,1.107-0.12,1.455-0.262l0.173,0.675
					c-0.335,0.15-0.922,0.336-1.759,0.336c-1.607,0-2.587-1.075-2.587-2.65c0-1.599,0.946-2.849,2.478-2.849
					c1.717,0,2.162,1.511,2.162,2.478c0,0.195-0.011,0.35-0.032,0.457L220.495,92.966z M223.288,92.281
					c0.011-0.6-0.249-1.555-1.315-1.555c-0.978,0-1.391,0.892-1.468,1.555H223.288z"/>
				<path fill="#FFFFFF" d="M225.125,94.466c0.294,0.175,0.794,0.368,1.271,0.368c0.686,0,1.012-0.337,1.012-0.782
					c0-0.456-0.271-0.704-0.969-0.967c-0.955-0.349-1.401-0.858-1.401-1.487c0-0.849,0.696-1.544,1.815-1.544
					c0.532,0,1,0.142,1.281,0.324l-0.228,0.687c-0.207-0.119-0.589-0.305-1.075-0.305c-0.566,0-0.87,0.325-0.87,0.719
					c0,0.444,0.304,0.641,0.989,0.901c0.902,0.335,1.379,0.793,1.379,1.586c0,0.935-0.729,1.586-1.956,1.586
					c-0.575,0-1.106-0.151-1.478-0.368L225.125,94.466z"/>
				<path fill="#FFFFFF" d="M229.242,94.466c0.292,0.175,0.792,0.368,1.27,0.368c0.686,0,1.012-0.337,1.012-0.782
					c0-0.456-0.271-0.704-0.969-0.967c-0.955-0.349-1.399-0.858-1.399-1.487c0-0.849,0.694-1.544,1.813-1.544
					c0.533,0,0.999,0.142,1.282,0.324l-0.229,0.687c-0.207-0.119-0.586-0.305-1.075-0.305c-0.564,0-0.868,0.325-0.868,0.719
					c0,0.444,0.304,0.641,0.988,0.901c0.9,0.335,1.379,0.793,1.379,1.586c0,0.935-0.727,1.586-1.954,1.586
					c-0.576,0-1.109-0.151-1.479-0.368L229.242,94.466z"/>
				<path fill="#FFFFFF" d="M234.686,96.977c0.444-0.033,0.815-0.152,1.043-0.402c0.262-0.293,0.369-0.717,0.369-1.979v-4.422h0.956
					v4.791c0,1.022-0.163,1.687-0.631,2.164c-0.424,0.424-1.119,0.599-1.63,0.599L234.686,96.977z M236.554,89.206
					c-0.358,0-0.598-0.283-0.598-0.619c0-0.337,0.249-0.61,0.619-0.61c0.368,0,0.608,0.273,0.608,0.61
					c0,0.336-0.229,0.619-0.619,0.619H236.554z"/>
				<path fill="#FFFFFF" d="M240.639,95.552c-1.412,0-2.521-1.042-2.521-2.706c0-1.761,1.162-2.792,2.606-2.792
					c1.513,0,2.533,1.099,2.533,2.693c0,1.957-1.359,2.805-2.609,2.805H240.639z M240.671,94.834c0.914,0,1.599-0.857,1.599-2.054
					c0-0.892-0.445-2.011-1.576-2.011c-1.119,0-1.606,1.045-1.606,2.043c0,1.152,0.651,2.021,1.574,2.021H240.671z"/>
				<path fill="#FFFFFF" d="M248.756,93.997c0,0.544,0.012,1.022,0.042,1.437h-0.847l-0.055-0.858h-0.021
					c-0.238,0.423-0.805,0.978-1.739,0.978c-0.824,0-1.813-0.467-1.813-2.303v-3.076h0.957v2.901c0,0.999,0.313,1.686,1.174,1.686
					c0.641,0,1.086-0.446,1.26-0.881c0.056-0.132,0.088-0.306,0.088-0.489v-3.217h0.955L248.756,93.997L248.756,93.997z"/>
				<path fill="#FFFFFF" d="M250.198,91.814c0-0.621-0.013-1.153-0.044-1.643h0.836l0.044,1.032h0.032
					c0.238-0.706,0.826-1.151,1.467-1.151c0.099,0,0.175,0.012,0.261,0.033v0.891c-0.106-0.012-0.206-0.022-0.337-0.022
					c-0.674,0-1.15,0.512-1.282,1.219c-0.021,0.142-0.032,0.293-0.032,0.456v2.805h-0.955L250.198,91.814z"/>
				<path fill="#FFFFFF" d="M253.657,91.598c0-0.556-0.013-0.99-0.044-1.425h0.848l0.055,0.858h0.021
					c0.26-0.489,0.868-0.979,1.738-0.979c0.729,0,1.858,0.436,1.858,2.238v3.141h-0.958v-3.033c0-0.847-0.312-1.563-1.216-1.563
					c-0.619,0-1.108,0.446-1.282,0.979c-0.044,0.117-0.063,0.293-0.063,0.443v3.174h-0.957V91.598z"/>
				<path fill="#FFFFFF" d="M263.241,94.172c0,0.456,0.021,0.901,0.075,1.262h-0.857l-0.087-0.662h-0.033
					c-0.282,0.412-0.858,0.78-1.606,0.78c-1.065,0-1.61-0.748-1.61-1.512c0-1.271,1.13-1.965,3.164-1.954v-0.109
					c0-0.435-0.121-1.228-1.196-1.217c-0.499,0-1.011,0.143-1.38,0.393l-0.217-0.642c0.436-0.271,1.075-0.457,1.737-0.457
					c1.619,0,2.012,1.099,2.012,2.152L263.241,94.172L263.241,94.172z M262.307,92.747c-1.044-0.021-2.229,0.165-2.229,1.187
					c0,0.631,0.413,0.912,0.891,0.912c0.696,0,1.143-0.435,1.294-0.88c0.032-0.099,0.044-0.207,0.044-0.305V92.747z"/>
				<path fill="#FFFFFF" d="M264.624,87.718h0.957v7.716h-0.957V87.718z"/>
			</g>
		</g>
	</g>
</g>
<g>
	<path fill="#FFFFFF" d="M114.03,28.016h-9.938c-0.994,0-1.801,0.811-1.801,1.803v27.994c0,0.988,0.807,1.803,1.801,1.803h3.891
		c0.975,0,1.799-0.824,1.799-1.803v-8.945h4.293c5.746,0,10.424-4.713,10.424-10.508C124.499,32.656,119.804,28.016,114.03,28.016z
		 M109.782,35.211h3.91c1.854,0,3.361,1.393,3.361,3.105c0,1.908-1.477,3.406-3.361,3.406h-3.91V35.211z M146.407,54.346v3.467
		c0,0.988-0.812,1.803-1.803,1.803h-15.479c-0.99,0-1.799-0.814-1.799-1.803V29.818c0-0.992,0.809-1.803,1.799-1.803h3.891
		c0.977,0,1.799,0.826,1.799,1.803v22.73h9.789C145.597,52.549,146.407,53.355,146.407,54.346z M162.452,27.598
		c-8.925,0-16.182,7.293-16.182,16.262c0,9.066,7.107,16.174,16.182,16.174c9.092,0,16.217-7.107,16.217-16.174
		C178.669,34.891,171.393,27.598,162.452,27.598z M162.452,52.549c-4.793,0-8.691-3.898-8.691-8.689
		c0-4.844,3.898-8.777,8.691-8.777c4.731,0,8.729,4.018,8.729,8.777C171.184,48.65,167.266,52.549,162.452,52.549z M201.718,50.666
		c0,4.541-3.76,9.367-10.723,9.367c-5.789,0-9.111-2.73-9.992-3.572c-0.408-0.408-1.146-1.143-0.392-2.475l1.529-2.635
		c0.568-0.996,2.031-1.266,2.906-0.582c2.332,1.572,4.355,2.414,5.777,2.414c1.625,0,2.853-0.971,2.853-2.266
		c0-1.105-0.567-2.457-4.749-4.152c-2.119-0.859-8.574-3.459-8.574-10.053c0-4.393,3.291-9.115,10.513-9.115
		c4.776,0,8.381,2.523,9.053,3.033c0.344,0.195,0.653,0.645,0.769,1.182c0.121,0.564,0.014,1.137-0.291,1.574l-1.596,2.394
		c-0.67,1.01-1.97,1.373-2.861,0.785c-2.188-1.385-4.109-2.156-5.328-2.156c-1.859,0-2.724,1.172-2.724,1.965
		c0,1.055,0.525,2.252,4.371,3.812C196.93,42.064,201.718,44.783,201.718,50.666z"/>
</g>
<g>
	<g>
		<path fill="#FFFFFF" d="M89.522,30.18c1.791,0.555,3.695-0.449,4.25-2.232c0.557-1.799-0.449-3.699-2.24-4.254
			c-1.789-0.555-3.695,0.443-4.254,2.24C86.726,27.721,87.731,29.625,89.522,30.18z"/>
		<path fill="#FFFFFF" d="M97.462,47.086c0.277-0.896-0.223-1.848-1.117-2.127c-0.895-0.275-1.844,0.227-2.121,1.123
			c-0.273,0.891,0.223,1.846,1.113,2.121C96.231,48.482,97.185,47.975,97.462,47.086z"/>
		<path fill="#FFFFFF" d="M79.192,23.318c0.898,0.279,1.85-0.227,2.127-1.117c0.275-0.891-0.223-1.846-1.121-2.125
			c-0.898-0.279-1.853,0.229-2.129,1.117C77.794,22.086,78.294,23.039,79.192,23.318z"/>
		<path fill="#FFFFFF" d="M55.749,52.766c-0.893-0.277-1.852,0.225-2.131,1.127c-0.277,0.893,0.232,1.838,1.127,2.113
			c0.889,0.275,1.844-0.215,2.121-1.109C57.146,53.996,56.64,53.039,55.749,52.766z"/>
		<path fill="#FFFFFF" d="M85.36,60.65c-1.164-0.359-2.4,0.297-2.76,1.455c-0.359,1.162,0.289,2.402,1.453,2.763
			c1.158,0.36,2.396-0.293,2.756-1.457C87.171,62.254,86.519,61.01,85.36,60.65z"/>
		<path fill="#FFFFFF" d="M63.122,27.336c0.443-1.434-0.363-2.953-1.799-3.398c-1.428-0.443-2.953,0.355-3.396,1.789
			c-0.443,1.432,0.359,2.959,1.789,3.4C61.151,29.572,62.677,28.77,63.122,27.336z"/>
		<path fill="#FFFFFF" d="M68.886,62.209c-1.438-0.445-2.953,0.355-3.396,1.792c-0.443,1.428,0.352,2.951,1.787,3.397
			c1.428,0.439,2.943-0.366,3.387-1.795C71.108,64.169,70.313,62.65,68.886,62.209z"/>
		<path fill="#FFFFFF" d="M52.644,35.959c-1.076-0.334-2.219,0.27-2.553,1.348c-0.33,1.066,0.271,2.211,1.346,2.545
			c1.074,0.332,2.219-0.271,2.549-1.338C54.319,37.434,53.718,36.291,52.644,35.959z"/>
	</g>
	<g>
		<g>
			<path fill="#FFFFFF" d="M87.567,35.076c-2.26-3.594-5.754-6.09-9.756-7.105c-0.021-0.006-0.043-0.02-0.066-0.029l-0.004,0.014
				c-1.287-0.318-2.621-0.494-3.99-0.494c-3.062,0-6.055,0.867-8.654,2.504c-7.602,4.789-9.896,14.871-5.107,22.479
				c2.996,4.768,8.16,7.611,13.813,7.611l0,0c3.064,0,6.057-0.865,8.658-2.502C90.063,52.766,92.354,42.678,87.567,35.076z
				 M81.3,55.713c-1.953,1.227-4.166,1.922-6.453,2.092c1.943-1.639,3.566-3.988,4.945-7.148h0.002
				c0.449-0.189,0.898-0.389,1.334-0.598c0.443-0.219,0.871-0.439,1.287-0.678c0.42-0.236,0.832-0.479,1.221-0.742
				c0.361-0.229,0.693-0.471,1.016-0.709c0.08,0.281,0.154,0.57,0.213,0.84c0.068,0.348,0.119,0.686,0.152,1.014
				c0.031,0.318,0.043,0.627,0.033,0.932c-0.004,0.291-0.027,0.566-0.068,0.82c-0.043,0.266-0.09,0.49-0.164,0.713
				C84.507,53.23,82.835,54.746,81.3,55.713z M61.907,51.391c0.178,0.096,0.346,0.199,0.537,0.285
				c0.352,0.162,0.705,0.299,1.098,0.428c0.367,0.117,0.758,0.236,1.146,0.326c0.26,0.062,0.527,0.104,0.795,0.154
				c0.24,1.207,0.584,2.324,1.07,3.293C64.71,54.779,63.112,53.268,61.907,51.391z M67.347,32.537
				c0.289,0.014,0.596,0.035,0.916,0.088c0.318,0.045,0.652,0.115,0.988,0.189c0.279,0.068,0.568,0.162,0.859,0.254
				c-0.877,1.209-1.693,2.617-2.455,4.26c-1.301,2.873-2.121,6.002-2.441,9.305c-0.148,1.59-0.113,3.066,0.037,4.457
				c-0.078-0.021-0.158-0.029-0.234-0.051c-0.357-0.084-0.709-0.188-1.035-0.289c-0.33-0.111-0.643-0.232-0.949-0.375
				c-0.291-0.131-0.562-0.271-0.828-0.439c-0.25-0.145-0.471-0.301-0.668-0.463c-0.207-0.168-0.389-0.342-0.539-0.502
				c-0.471-0.481-0.846-1.492-0.889-1.707h-0.004c-1.236-4.842,0.102-10.02,3.807-13.588C64.745,32.875,65.987,32.465,67.347,32.537
				z M85.728,36.234c0.441,0.699,0.814,1.441,1.135,2.207c0.156,0.379,0.281,0.762,0.396,1.152c0.109,0.383,0.24,0.758,0.324,1.146
				c0.109,0.504,0.088,1.022-0.082,1.508c-0.082,0.236-0.166,0.475-0.279,0.711c-0.113,0.242-0.252,0.488-0.402,0.732
				c-0.16,0.248-0.336,0.5-0.543,0.76c-0.201,0.26-0.426,0.51-0.646,0.752c-0.104,0.107-0.225,0.213-0.336,0.32
				c-0.08-0.188-0.15-0.379-0.238-0.562c-0.186-0.402-0.389-0.799-0.609-1.193c-0.221-0.398-0.451-0.791-0.695-1.182
				c-0.246-0.396-0.51-0.789-0.781-1.172c-0.209-0.295-0.432-0.584-0.656-0.875c0.248-3.455-0.08-6.332-0.928-8.65
				C83.103,32.984,84.601,34.441,85.728,36.234z M73.159,56.389c-0.996,0.766-2.051,1.148-2.85,1.021
				c-0.902-0.152-1.799-0.922-2.404-2.064c-0.42-0.803-0.711-1.67-0.918-2.551c0.074,0.008,0.143,0.02,0.215,0.025
				c0.434,0.035,0.877,0.059,1.332,0.068c0.156,0.004,0.314,0.006,0.473,0.006c0.299,0,0.6-0.006,0.898-0.021
				c0.467-0.014,0.934-0.043,1.393-0.09c0.477-0.035,0.953-0.098,1.436-0.164c0.477-0.066,0.951-0.156,1.434-0.248
				c0.477-0.092,0.953-0.199,1.43-0.316c0.43-0.107,0.857-0.229,1.283-0.357C75.786,53.74,74.558,55.291,73.159,56.389z
				 M66.665,46.771c0.303-3.141,1.084-6.115,2.316-8.836c0.789-1.707,1.633-3.143,2.545-4.336c0.338,0.15,0.688,0.305,1.047,0.49
				c0.395,0.199,0.785,0.416,1.172,0.648c0.389,0.223,0.775,0.475,1.146,0.719c0.383,0.26,0.766,0.531,1.127,0.803
				c0.373,0.287,0.736,0.576,1.094,0.883c0.354,0.301,0.709,0.609,1.049,0.928c0.346,0.326,0.68,0.66,1.002,0.988
				c0.322,0.334,0.639,0.676,0.941,1.025c0.016,0.016,0.033,0.039,0.049,0.055c-0.006,0.084-0.002,0.158-0.006,0.242
				c-0.291,3.16-1,6.143-2.109,8.855c-0.096,0.232-0.195,0.453-0.295,0.68c-0.377,0.137-0.754,0.264-1.135,0.375
				c-0.449,0.137-0.898,0.27-1.352,0.379c-0.455,0.109-0.914,0.215-1.363,0.303c-0.455,0.088-0.91,0.168-1.361,0.236
				c-0.449,0.062-0.896,0.119-1.357,0.154c-0.441,0.043-0.877,0.072-1.324,0.086c-0.434,0.018-0.857,0.021-1.283,0.012
				c-0.424-0.01-0.838-0.027-1.248-0.064c-0.205-0.014-0.4-0.047-0.601-0.068C66.507,49.689,66.542,48.076,66.665,46.771z
				 M82.056,42.613c0.164,0.238,0.332,0.479,0.484,0.723c0.23,0.371,0.447,0.742,0.656,1.119c0.203,0.365,0.393,0.727,0.563,1.105
				c0.148,0.316,0.279,0.629,0.402,0.941c-0.088,0.066-0.166,0.139-0.258,0.211c-0.328,0.24-0.674,0.49-1.049,0.734
				c-0.369,0.24-0.754,0.471-1.145,0.69c-0.387,0.217-0.781,0.424-1.186,0.625C81.216,46.816,81.731,44.766,82.056,42.613z
				 M77.267,30.082c0.721,0.209,1.385,0.891,1.869,1.928c0.709,1.604,1.064,3.652,1.082,6.09c-0.014-0.014-0.021-0.025-0.033-0.037
				c-0.34-0.346-0.688-0.691-1.047-1.027c-0.355-0.338-0.725-0.664-1.1-0.98c-0.375-0.32-0.76-0.627-1.158-0.932
				c-0.385-0.291-0.785-0.574-1.191-0.85c-0.398-0.27-0.811-0.527-1.221-0.773c-0.416-0.242-0.836-0.477-1.25-0.68
				c-0.248-0.129-0.49-0.236-0.738-0.348c0.543-0.58,1.107-1.094,1.697-1.527v0.004c1.086-0.742,2.195-1.055,3.01-0.889
				C77.212,30.072,77.239,30.072,77.267,30.082z M73.364,29.744l-0.002-0.002c-0.818,0.588-1.588,1.299-2.316,2.141
				c-0.098-0.037-0.195-0.082-0.293-0.111c-0.396-0.133-0.787-0.248-1.17-0.344c-0.379-0.09-0.756-0.164-1.105-0.213
				c-0.328-0.055-0.641-0.076-0.949-0.092c1.863-0.924,3.899-1.432,5.983-1.465C73.466,29.689,73.413,29.705,73.364,29.744z
				 M86.437,49.639c-0.039-0.371-0.094-0.754-0.176-1.156c-0.078-0.375-0.176-0.768-0.293-1.162
				c-0.035-0.117-0.082-0.238-0.123-0.355c0.281-0.252,0.553-0.516,0.814-0.779c0.27-0.289,0.521-0.57,0.736-0.855
				c0.168-0.207,0.309-0.42,0.451-0.631c-0.123,1.818-0.598,3.6-1.396,5.252C86.442,49.842,86.446,49.744,86.437,49.639z"/>
			<path fill="#FFFFFF" d="M70.72,45.438c0.935,0,1.695-0.758,1.695-1.695c0-0.936-0.762-1.697-1.695-1.701
				c-0.938,0.004-1.701,0.77-1.703,1.705C69.019,44.68,69.784,45.438,70.72,45.438z"/>
		</g>
	</g>
</g>
</svg>
